<svg fill="#e5e7eb" xmlns="http://www.w3.org/2000/svg" viewBox="0 0 24 24"><path d="M12 .297a12 12 0 00-3.79 23.39c.6.113.82-.258.82-.577v-2.02c-3.34.726-4.04-1.61-4.04-1.61a3.18 3.18 0 00-1.34-1.76c-1.1-.75.084-.74.084-.74a2.54 2.54 0 011.85 1.24 2.57 2.57 0 003.5 1 2.57 2.57 0 01.76-1.61c-2.67-.3-5.47-1.33-5.47-5.93a4.64 4.64 0 011.23-3.22 4.3 4.3 0 01.12-3.18s1-.32 3.3 1.23a11.38 11.38 0 016 0c2.28-1.55 3.28-1.23 3.28-1.23a4.3 4.3 0 01.12 3.18 4.64 4.64 0 011.23 3.22c0 4.61-2.8 5.63-5.48 5.93a2.9 2.9 0 01.83 2.26v3.35c0 .32.22.7.82.58A12 12 0 0012 .297z"/></svg>