<svg fill="#e5e7eb" xmlns="http://www.w3.org/2000/svg" viewBox="0 0 24 24"><path d="M12 2.163c3.204 0 3.584.012 4.85.07 1.17.054 1.97.24 2.427.403a4.92 4.92 0 011.75 1.145 4.92 4.92 0 011.145 1.75c.163.457.349 1.257.403 2.427.058 1.266.07 1.646.07 4.85s-.012 3.584-.07 4.85c-.054 1.17-.24 1.97-.403 2.427a4.92 4.92 0 01-1.145 1.75 4.92 4.92 0 01-1.75 1.145c-.457.163-1.257.349-2.427.403-1.266.058-1.646.07-4.85.07s-3.584-.012-4.85-.07c-1.17-.054-1.97-.24-2.427-.403a4.92 4.92 0 01-1.75-1.145 4.92 4.92 0 01-1.145-1.75c-.163-.457-.349-1.257-.403-2.427C2.175 15.584 2.163 15.204 2.163 12s.012-3.584.07-4.85c.054-1.17.24-1.97.403-2.427a4.92 4.92 0 011.145-1.75A4.92 4.92 0 015.53 1.93c-.457.163 1.257.349 2.427.403 1.266.058 1.646.07 4.85.07zm0 1.838c-3.17 0-3.548-.012-4.795-.07-.995-.046-1.538-.213-1.897-.355a3.11 3.11 0 00-1.128-.732c-.3-.12-.555-.26-.795-.5s-.38-.495-.5-.795a3.11 3.11 0 00-.732-1.128c-.142-.359-.309-.902-.355-1.897C3.013 1.548 3.001 1.17 3.001 12c0 10.83.012 11.208.07 12.455.046.995.213 1.538.355 1.897.163.457.349 1.257.403 2.427.058 1.266.07 1.646.07 4.85s-.012 3.584-.07 4.85c-.054 1.17-.24 1.97-.403 2.427a3.11 3.11 0 01-.732 1.128c-.12.3-.26.555-.5.795s-.495.38-.795.5a3.11 3.11 0 01-1.128.732c-.359.142-.902.309-1.897.355C1.548 20.987 1.17 20.999 12 20.999s10.452-.012 11.708-.07c.995-.046 1.538-.213 1.897-.355a3.11 3.11 0 001.128-.732c.3-.12.555-.26.795-.5s.38-.495.5-.795a3.11 3.11 0 00.732-1.128c.142-.359.309-.902.355-1.897.058-1.247.07-1.625.07-4.795s-.012-3.548-.07-4.795c-.046-.995-.213-1.538-.355-1.897a3.11 3.11 0 00-.732-1.128 3.11 3.11 0 00-.795-.5c-.359-.142-.902-.309-1.897-.355-1.247-.058-1.625-.07-4.795-.07zM12 5.838A6.162 6.162 0 105.838 12 6.162 6.162 0 0012 5.838zm0 10.162A3.999 3.999 0 118.001 12 3.999 3.999 0 0112 16.001zm4.875-10.97a1.44 1.44 0 11-1.44-1.44 1.44 1.44 0 011.44 1.44z"/></svg>