<svg fill="#e5e7eb" xmlns="http://www.w3.org/2000/svg" viewBox="0 0 24 24">
<path d="M12.04 2C6.58 2 2.2 6.38 2.2 11.84c0 1.82.48 3.6 1.39 5.18L2 22l5.17-1.54a10.79 10.79 0 004.87 1.18h.03c5.46 0 9.83-4.38 9.83-9.84C21.9 6.38 17.5 2 12.04 2zm5.67 14.26c-.24.68-1.36 1.3-1.88 1.38-.48.07-1.1.1-1.78-.11-.41-.13-.94-.3-1.63-.58-2.87-1.24-4.73-4.14-4.88-4.34-.14-.19-1.16-1.55-1.16-2.96 0-1.4.73-2.09 1-2.37.24-.25.63-.36 1-.36h.72c.23 0 .55-.12.86.65.32.77 1.09 2.64 1.18 2.83.1.19.16.42.03.68-.13.26-.2.42-.4.65-.19.22-.4.5-.17.94.24.44 1.07 1.76 2.3 2.85 1.58 1.41 2.34 1.47 2.78 1.29.44-.17.96-.7 1.22-1.17.26-.48.55-.4.93-.24.39.17 2.46 1.16 2.88 1.37.43.22.72.33.83.52.1.19.1 1.11-.14 1.79z"/>
</svg>